<svg xmlns="http://www.w3.org/2000/svg" xmlns:xlink="http://www.w3.org/1999/xlink" width="30" zoomAndPan="magnify" viewBox="0 0 375 374.999991" height="25" preserveAspectRatio="xMidYMid meet" version="1.0"><defs><g/><clipPath id="23875ae0c7"><path d="M 187 188 L 253 188 L 253 233.933594 L 187 233.933594 Z M 187 188 " clip-rule="nonzero"/></clipPath></defs><rect x="-37.5" width="450" fill="#ffffff" y="-37.499999" height="449.999989" fill-opacity="1"/><rect x="-37.5" width="450" fill="#ffffff" y="-37.499999" height="449.999989" fill-opacity="1"/><path fill="#f68712" d="M 167.484375 113.8125 C 165.015625 115.367188 161.820312 116.863281 157.785156 118.210938 C 148.820312 121.207031 139.378906 119.710938 130.40625 122.101562 C 128.136719 122.707031 124.761719 124.324219 122.714844 126.4375 C 122.714844 126.4375 128.972656 114.550781 147.210938 107.449219 C 148.855469 106.808594 150.597656 106.207031 152.445312 105.65625 C 163.644531 102.3125 160.488281 97.605469 155.585938 98.988281 C 155.585938 98.988281 159.644531 96.125 165.402344 96.34375 C 174.078125 96.675781 179.867188 106.015625 167.484375 113.8125 " fill-opacity="1" fill-rule="nonzero"/><path fill="#f68712" d="M 212.035156 113.886719 C 210.234375 121.496094 204.707031 128.179688 198.464844 133.546875 C 191.558594 139.496094 183.773438 143.828125 179.210938 146.011719 C 149.441406 160.28125 119.566406 154.933594 116.019531 169.480469 C 116.019531 169.480469 108.933594 156.398438 125.648438 147.128906 C 134.847656 142.027344 140.007812 139.390625 161.492188 131.582031 C 167.980469 129.222656 175.902344 126.34375 182.910156 121.734375 C 187.6875 118.59375 192.042969 114.648438 195.238281 109.515625 C 200.761719 100.628906 193.789062 91.808594 181.164062 91.0625 C 200.390625 89.984375 215.300781 100.113281 212.035156 113.886719 " fill-opacity="1" fill-rule="nonzero"/><path fill="#3871c1" d="M 222.945312 166.699219 C 216.75 171.492188 209.09375 176.015625 199.890625 180.09375 C 164.535156 195.757812 135.164062 192.328125 128.320312 207.308594 C 128.320312 207.308594 118.960938 187.664062 151.59375 177.015625 C 180.289062 167.65625 200.042969 158.648438 213.023438 150.066406 C 241.339844 131.359375 237.449219 114.675781 223.839844 100.78125 C 224.652344 101.273438 225.429688 101.753906 226.132812 102.203125 C 249.1875 118.402344 250.699219 145.242188 222.945312 166.699219 " fill-opacity="1" fill-rule="nonzero"/><path fill="#40b93c" d="M 251.308594 180.761719 C 247.273438 187.824219 241.359375 193.722656 234.28125 198.71875 C 225.789062 204.707031 215.609375 209.394531 204.964844 213.210938 C 190.988281 218.230469 156.65625 222.402344 155.546875 230.421875 C 155.546875 230.421875 151.167969 222.265625 166.699219 214.316406 C 184.527344 205.195312 203.296875 198.074219 220.996094 188.671875 C 222.722656 187.753906 226.039062 186.082031 229.933594 183.597656 C 242.03125 175.902344 259.722656 160.460938 252.824219 135.957031 C 253.078125 136.339844 265.6875 155.605469 251.308594 180.761719 " fill-opacity="1" fill-rule="nonzero"/><g clip-path="url(#23875ae0c7)"><path fill="#40b93c" d="M 252.59375 188.183594 C 252.59375 188.183594 251.882812 198.742188 237.007812 212.371094 C 236.96875 212.410156 236.925781 212.449219 236.886719 212.484375 C 228.921875 219.753906 219.324219 225.007812 211.136719 228.457031 C 198.535156 233.761719 187.425781 233.851562 187.308594 233.886719 C 201.203125 229.53125 221.5 218.03125 235.949219 206.464844 C 244.058594 199.972656 250.328125 193.464844 252.59375 188.183594 " fill-opacity="1" fill-rule="nonzero"/></g><path fill="#fbc108" d="M 167.484375 113.8125 C 160.433594 110.871094 153.550781 108.84375 147.210938 107.449219 C 148.855469 106.808594 150.597656 106.207031 152.445312 105.65625 C 163.644531 102.3125 160.488281 97.605469 155.585938 98.988281 C 155.585938 98.988281 159.644531 96.125 165.402344 96.34375 C 174.078125 96.675781 179.867188 106.015625 167.484375 113.8125 " fill-opacity="1" fill-rule="nonzero"/><path fill="#fbc108" d="M 212.035156 113.886719 C 210.234375 121.496094 204.707031 128.179688 198.464844 133.546875 C 193.433594 128.917969 188.199219 125.019531 182.910156 121.734375 C 187.6875 118.59375 192.042969 114.648438 195.238281 109.515625 C 200.761719 100.628906 193.789062 91.808594 181.164062 91.0625 C 200.390625 89.984375 215.300781 100.113281 212.035156 113.886719 " fill-opacity="1" fill-rule="nonzero"/><path fill="#00adef" d="M 222.945312 166.699219 C 219.921875 160.578125 216.589844 155.050781 213.023438 150.066406 C 241.339844 131.359375 237.449219 114.675781 223.839844 100.78125 C 224.652344 101.273438 225.429688 101.753906 226.132812 102.203125 C 249.1875 118.402344 250.699219 145.242188 222.945312 166.699219 " fill-opacity="1" fill-rule="nonzero"/><path fill="#80cc28" d="M 252.59375 188.183594 C 252.59375 188.183594 251.882812 198.742188 237.007812 212.371094 C 236.679688 210.367188 236.328125 208.394531 235.949219 206.464844 C 244.058594 199.972656 250.328125 193.464844 252.59375 188.183594 " fill-opacity="1" fill-rule="nonzero"/><path fill="#80cc28" d="M 234.28125 198.71875 C 233.007812 193.382812 231.550781 188.351562 229.933594 183.597656 C 242.03125 175.902344 259.722656 160.460938 252.824219 135.957031 C 253.078125 136.339844 265.6875 155.605469 251.308594 180.761719 C 247.273438 187.824219 241.359375 193.722656 234.28125 198.71875 " fill-opacity="1" fill-rule="nonzero"/><g fill="#9dcf23" fill-opacity="1"><g transform="translate(93.636452, 269.238177)"><g/></g></g><g fill="#9dcf23" fill-opacity="1"><g transform="translate(98.990428, 269.238177)"><g/></g></g><g fill="#9dcf23" fill-opacity="1"><g transform="translate(104.347388, 269.238177)"><g><path d="M 3.671875 -15.640625 C 5.523438 -17.398438 7.8125 -18.28125 10.53125 -18.28125 C 13.25 -18.28125 15.535156 -17.398438 17.390625 -15.640625 C 19.242188 -13.878906 20.171875 -11.695312 20.171875 -9.09375 C 20.171875 -6.5 19.242188 -4.3125 17.390625 -2.53125 C 15.535156 -0.757812 13.25 0.125 10.53125 0.125 C 7.8125 0.125 5.523438 -0.757812 3.671875 -2.53125 C 1.816406 -4.3125 0.890625 -6.5 0.890625 -9.09375 C 0.890625 -11.695312 1.816406 -13.878906 3.671875 -15.640625 Z M 10.5625 -15.515625 C 8.757812 -15.515625 7.210938 -14.894531 5.921875 -13.65625 C 4.640625 -12.414062 4 -10.894531 4 -9.09375 C 4 -7.289062 4.644531 -5.757812 5.9375 -4.5 C 7.226562 -3.25 8.765625 -2.625 10.546875 -2.625 C 12.335938 -2.625 13.863281 -3.25 15.125 -4.5 C 16.394531 -5.757812 17.03125 -7.289062 17.03125 -9.09375 C 17.03125 -10.894531 16.394531 -12.414062 15.125 -13.65625 C 13.863281 -14.894531 12.34375 -15.515625 10.5625 -15.515625 Z M 10.5625 -15.515625 "/></g></g></g><g fill="#9dcf23" fill-opacity="1"><g transform="translate(124.049073, 269.238177)"><g><path d="M 3.671875 -15.640625 C 5.523438 -17.398438 7.8125 -18.28125 10.53125 -18.28125 C 13.25 -18.28125 15.535156 -17.398438 17.390625 -15.640625 C 19.242188 -13.878906 20.171875 -11.695312 20.171875 -9.09375 C 20.171875 -6.5 19.242188 -4.3125 17.390625 -2.53125 C 15.535156 -0.757812 13.25 0.125 10.53125 0.125 C 7.8125 0.125 5.523438 -0.757812 3.671875 -2.53125 C 1.816406 -4.3125 0.890625 -6.5 0.890625 -9.09375 C 0.890625 -11.695312 1.816406 -13.878906 3.671875 -15.640625 Z M 10.5625 -15.515625 C 8.757812 -15.515625 7.210938 -14.894531 5.921875 -13.65625 C 4.640625 -12.414062 4 -10.894531 4 -9.09375 C 4 -7.289062 4.644531 -5.757812 5.9375 -4.5 C 7.226562 -3.25 8.765625 -2.625 10.546875 -2.625 C 12.335938 -2.625 13.863281 -3.25 15.125 -4.5 C 16.394531 -5.757812 17.03125 -7.289062 17.03125 -9.09375 C 17.03125 -10.894531 16.394531 -12.414062 15.125 -13.65625 C 13.863281 -14.894531 12.34375 -15.515625 10.5625 -15.515625 Z M 10.5625 -15.515625 "/></g></g></g><g fill="#9dcf23" fill-opacity="1"><g transform="translate(143.750758, 269.238177)"><g><path d="M 14.140625 -4.109375 L 4.96875 -4.109375 L 3.21875 0 L 0.03125 0 L 8.0625 -18.203125 L 11.203125 -18.203125 L 19.15625 0 L 15.890625 0 Z M 12.96875 -6.84375 L 9.546875 -14.921875 L 6.109375 -6.84375 Z M 12.96875 -6.84375 "/></g></g></g><g fill="#9dcf23" fill-opacity="1"><g transform="translate(161.581004, 269.238177)"><g><path d="M 14.140625 -4.109375 L 4.96875 -4.109375 L 3.21875 0 L 0.03125 0 L 8.0625 -18.203125 L 11.203125 -18.203125 L 19.15625 0 L 15.890625 0 Z M 12.96875 -6.84375 L 9.546875 -14.921875 L 6.109375 -6.84375 Z M 12.96875 -6.84375 "/></g></g></g><g fill="#9dcf23" fill-opacity="1"><g transform="translate(179.411247, 269.238177)"><g><path d="M 14.8125 -15.4375 L 9.046875 -15.4375 L 9.046875 0 L 5.984375 0 L 5.984375 -15.4375 L 0.234375 -15.4375 L 0.234375 -18.203125 L 14.8125 -18.203125 Z M 14.8125 -15.4375 "/></g></g></g><g fill="#9dcf23" fill-opacity="1"><g transform="translate(193.108731, 269.238177)"><g><path d="M 14.8125 -15.4375 L 9.046875 -15.4375 L 9.046875 0 L 5.984375 0 L 5.984375 -15.4375 L 0.234375 -15.4375 L 0.234375 -18.203125 L 14.8125 -18.203125 Z M 14.8125 -15.4375 "/></g></g></g><g fill="#323232" fill-opacity="1"><g transform="translate(135.396163, 284.557852)"><g><path d="M 5.78125 0 L 4.8125 0 L 1.734375 -4.15625 L 1.734375 0 L 0.765625 0 L 0.765625 -5.78125 L 1.71875 -5.78125 L 4.8125 -1.625 L 4.8125 -5.78125 L 5.78125 -5.78125 Z M 5.78125 0 "/></g></g></g><g fill="#323232" fill-opacity="1"><g transform="translate(146.946538, 284.557852)"><g><path d="M 4.890625 -4.90625 L 1.734375 -4.90625 L 1.734375 -3.34375 L 4.5625 -3.34375 L 4.5625 -2.46875 L 1.734375 -2.46875 L 1.734375 -0.875 L 5 -0.875 L 5 0 L 0.765625 0 L 0.765625 -5.78125 L 4.890625 -5.78125 Z M 4.890625 -4.90625 "/></g></g></g><g fill="#323232" fill-opacity="1"><g transform="translate(157.372458, 284.557852)"><g><path d="M 4.71875 -4.90625 L 2.875 -4.90625 L 2.875 0 L 1.90625 0 L 1.90625 -4.90625 L 0.078125 -4.90625 L 0.078125 -5.78125 L 4.71875 -5.78125 Z M 4.71875 -4.90625 "/></g></g></g><g fill="#323232" fill-opacity="1"><g transform="translate(167.161738, 284.557852)"><g><path d="M 6.71875 0 L 5.71875 0 L 4.34375 -4.515625 L 2.953125 0 L 1.9375 0 L 0.03125 -5.78125 L 1.078125 -5.78125 L 2.484375 -1.078125 L 3.875 -5.78125 L 4.828125 -5.78125 L 6.234375 -1.078125 L 7.640625 -5.78125 L 8.640625 -5.78125 Z M 6.71875 0 "/></g></g></g><g fill="#323232" fill-opacity="1"><g transform="translate(180.729499, 284.557852)"><g><path d="M 1.15625 -4.96875 C 1.75 -5.53125 2.476562 -5.8125 3.34375 -5.8125 C 4.207031 -5.8125 4.9375 -5.53125 5.53125 -4.96875 C 6.125 -4.414062 6.421875 -3.722656 6.421875 -2.890625 C 6.421875 -2.066406 6.125 -1.367188 5.53125 -0.796875 C 4.9375 -0.234375 4.207031 0.046875 3.34375 0.046875 C 2.476562 0.046875 1.75 -0.234375 1.15625 -0.796875 C 0.570312 -1.367188 0.28125 -2.066406 0.28125 -2.890625 C 0.28125 -3.722656 0.570312 -4.414062 1.15625 -4.96875 Z M 3.359375 -4.9375 C 2.785156 -4.9375 2.289062 -4.738281 1.875 -4.34375 C 1.46875 -3.945312 1.265625 -3.460938 1.265625 -2.890625 C 1.265625 -2.316406 1.46875 -1.828125 1.875 -1.421875 C 2.289062 -1.023438 2.78125 -0.828125 3.34375 -0.828125 C 3.914062 -0.828125 4.398438 -1.023438 4.796875 -1.421875 C 5.203125 -1.828125 5.40625 -2.316406 5.40625 -2.890625 C 5.40625 -3.460938 5.203125 -3.945312 4.796875 -4.34375 C 4.398438 -4.738281 3.921875 -4.9375 3.359375 -4.9375 Z M 3.359375 -4.9375 "/></g></g></g><g fill="#323232" fill-opacity="1"><g transform="translate(192.42869, 284.557852)"><g><path d="M 4.4375 0 L 3.375 -1.75 C 3.320312 -1.75 3.234375 -1.75 3.109375 -1.75 L 1.734375 -1.75 L 1.734375 0 L 0.765625 0 L 0.765625 -5.78125 L 3.109375 -5.78125 C 3.847656 -5.78125 4.421875 -5.609375 4.828125 -5.265625 C 5.234375 -4.921875 5.4375 -4.4375 5.4375 -3.8125 C 5.4375 -3.34375 5.332031 -2.945312 5.125 -2.625 C 4.914062 -2.3125 4.617188 -2.082031 4.234375 -1.9375 L 5.53125 0 Z M 1.734375 -2.625 L 3.109375 -2.625 C 4.046875 -2.625 4.515625 -3.007812 4.515625 -3.78125 C 4.515625 -4.53125 4.046875 -4.90625 3.109375 -4.90625 L 1.734375 -4.90625 Z M 1.734375 -2.625 "/></g></g></g><g fill="#323232" fill-opacity="1"><g transform="translate(203.408565, 284.557852)"><g><path d="M 4.625 0 L 2.71875 -2.546875 L 1.734375 -1.46875 L 1.734375 0 L 0.765625 0 L 0.765625 -5.78125 L 1.734375 -5.78125 L 1.734375 -2.796875 L 4.5 -5.78125 L 5.640625 -5.78125 L 3.40625 -3.3125 L 5.796875 0 Z M 4.625 0 "/></g></g></g><g fill="#323232" fill-opacity="1"><g transform="translate(214.347102, 284.557852)"><g><path d="M 1.734375 0 L 0.765625 0 L 0.765625 -5.78125 L 1.734375 -5.78125 Z M 1.734375 0 "/></g></g></g><g fill="#323232" fill-opacity="1"><g transform="translate(221.846148, 284.557852)"><g><path d="M 5.78125 0 L 4.8125 0 L 1.734375 -4.15625 L 1.734375 0 L 0.765625 0 L 0.765625 -5.78125 L 1.71875 -5.78125 L 4.8125 -1.625 L 4.8125 -5.78125 L 5.78125 -5.78125 Z M 5.78125 0 "/></g></g></g><g fill="#323232" fill-opacity="1"><g transform="translate(233.396524, 284.557852)"><g><path d="M 4.71875 -2.84375 L 5.578125 -2.84375 L 5.578125 -0.703125 C 5.273438 -0.484375 4.921875 -0.300781 4.515625 -0.15625 C 4.109375 -0.0195312 3.710938 0.046875 3.328125 0.046875 C 2.472656 0.046875 1.75 -0.234375 1.15625 -0.796875 C 0.570312 -1.367188 0.28125 -2.066406 0.28125 -2.890625 C 0.28125 -3.722656 0.578125 -4.414062 1.171875 -4.96875 C 1.765625 -5.53125 2.5 -5.8125 3.375 -5.8125 C 3.789062 -5.8125 4.191406 -5.738281 4.578125 -5.59375 C 4.972656 -5.445312 5.316406 -5.25 5.609375 -5 L 5.046875 -4.28125 C 4.578125 -4.71875 4.019531 -4.9375 3.375 -4.9375 C 2.789062 -4.9375 2.289062 -4.738281 1.875 -4.34375 C 1.46875 -3.945312 1.265625 -3.460938 1.265625 -2.890625 C 1.265625 -2.316406 1.46875 -1.828125 1.875 -1.421875 C 2.289062 -1.023438 2.796875 -0.828125 3.390625 -0.828125 C 3.835938 -0.828125 4.28125 -0.960938 4.71875 -1.234375 Z M 4.71875 -2.84375 "/></g></g></g><g fill="#1c9ae1" fill-opacity="1"><g transform="translate(208.174868, 267.738177)"><g><path d="M 5.921875 -14.765625 L 0.109375 -14.765625 L 0.109375 -18.203125 L 15.96875 -18.203125 L 15.96875 -14.765625 L 10.140625 -14.765625 L 10.140625 0 L 5.921875 0 Z M 5.921875 -14.765625 "/></g></g></g><g fill="#1c9ae1" fill-opacity="1"><g transform="translate(222.886048, 267.738177)"><g><path d="M 16.25 -3.375 L 16.25 0 L 2.15625 0 L 2.15625 -18.203125 L 15.90625 -18.203125 L 15.90625 -14.8125 L 6.34375 -14.8125 L 6.34375 -10.875 L 14.796875 -10.875 L 14.796875 -7.59375 L 6.34375 -7.59375 L 6.34375 -3.375 Z M 16.25 -3.375 "/></g></g></g><g fill="#1c9ae1" fill-opacity="1"><g transform="translate(238.97481, 267.738177)"><g><path d="M 10.875 0.3125 C 9.019531 0.3125 7.34375 -0.0859375 5.84375 -0.890625 C 4.34375 -1.703125 3.160156 -2.820312 2.296875 -4.25 C 1.441406 -5.675781 1.015625 -7.289062 1.015625 -9.09375 C 1.015625 -10.894531 1.441406 -12.507812 2.296875 -13.9375 C 3.160156 -15.375 4.34375 -16.492188 5.84375 -17.296875 C 7.34375 -18.109375 9.023438 -18.515625 10.890625 -18.515625 C 12.472656 -18.515625 13.898438 -18.234375 15.171875 -17.671875 C 16.441406 -17.117188 17.507812 -16.320312 18.375 -15.28125 L 15.671875 -12.796875 C 14.441406 -14.210938 12.921875 -14.921875 11.109375 -14.921875 C 9.972656 -14.921875 8.960938 -14.671875 8.078125 -14.171875 C 7.203125 -13.679688 6.515625 -12.992188 6.015625 -12.109375 C 5.523438 -11.234375 5.28125 -10.226562 5.28125 -9.09375 C 5.28125 -7.96875 5.523438 -6.960938 6.015625 -6.078125 C 6.515625 -5.203125 7.203125 -4.515625 8.078125 -4.015625 C 8.960938 -3.523438 9.972656 -3.28125 11.109375 -3.28125 C 12.921875 -3.28125 14.441406 -4 15.671875 -5.4375 L 18.375 -2.9375 C 17.507812 -1.882812 16.4375 -1.078125 15.15625 -0.515625 C 13.875 0.0351562 12.445312 0.3125 10.875 0.3125 Z M 10.875 0.3125 "/></g></g></g><g fill="#1c9ae1" fill-opacity="1"><g transform="translate(256.675097, 267.738177)"><g><path d="M 18.84375 -18.203125 L 18.84375 0 L 14.640625 0 L 14.640625 -7.46875 L 6.375 -7.46875 L 6.375 0 L 2.15625 0 L 2.15625 -18.203125 L 6.375 -18.203125 L 6.375 -11.03125 L 14.640625 -11.03125 L 14.640625 -18.203125 Z M 18.84375 -18.203125 "/></g></g></g></svg>